<svg width="24" height="24" viewBox="0 0 24 24" fill="none" xmlns="http://www.w3.org/2000/svg">
<rect width="24" height="24" fill="url(#paint0_linear)"/>
<path d="M11.0909 14.6104C11.0909 14.9211 11.3466 15.1753 11.6591 15.1753L14.6051 15.1753L14.2273 16.969C14.2188 17.0113 14.2131 17.0565 14.2131 17.1017C14.2131 17.2768 14.2841 17.435 14.4006 17.5508L14.8523 18L17.6591 15.2092C17.8125 15.0567 17.9091 14.8448 17.9091 14.6104L17.9091 10.9383C17.9091 10.4694 17.5284 10.0909 17.0568 10.0909L13.2216 10.0909C12.8693 10.0909 12.5653 10.3027 12.4375 10.6078L11.1506 13.5963C11.1136 13.6924 11.0909 13.794 11.0909 13.9042L11.0909 14.6104Z" fill="white" fill-opacity="0.6"/>
<path d="M13.8182 9.38961C13.8182 9.07891 13.5625 8.82469 13.25 8.82469H10.304L10.6818 7.03102C10.6903 6.98865 10.696 6.94345 10.696 6.89827C10.696 6.72315 10.625 6.56495 10.5085 6.44915L10.0568 6L7.25001 8.79079C7.0966 8.94332 7 9.15517 7 9.38961V13.0617C7 13.5306 7.38067 13.9091 7.85227 13.9091H11.6875C12.0398 13.9091 12.3438 13.6973 12.4716 13.3922L13.7585 10.4037C13.7955 10.3076 13.8182 10.206 13.8182 10.0958V9.38961Z" fill="white"/>
<g clip-path="url(#clip0)">
<path d="M18.375 5.65224C16.6336 3.91118 14.3331 3 12.0325 3C9.73201 3 7.43133 3.91118 5.69014 5.65224C2.1502 9.19231 2.1502 14.7971 5.69014 18.3371C7.44204 20.0888 9.73201 21 12.0325 21C14.3331 21 16.623 20.0888 18.375 18.3371C21.9149 14.7971 21.9149 9.19231 18.375 5.65224ZM7.1781 7.14034C8.51843 5.81058 10.2702 5.08946 12.0325 5.08946C13.415 5.08946 14.808 5.54677 16.0111 6.40164L12.0325 10.3801L6.4394 15.9732C4.45857 13.1743 4.74888 9.58026 7.1781 7.14034ZM16.8869 16.8491C15.5467 18.1788 13.7949 18.9 12.0325 18.9C10.6501 18.9 9.25712 18.4427 8.05398 17.5878L17.6257 8.01622C19.6064 10.815 19.3162 14.409 16.8869 16.8491Z" fill="url(#paint1_linear)"/>
<path d="M18.375 18.3371C16.623 20.0888 14.3331 21 12.0325 21V18.9C13.7949 18.9 15.5468 18.1788 16.8869 16.8491C19.3162 14.409 19.6064 10.815 17.6257 8.01622L12.0325 13.6094V10.3801L16.011 6.40164C14.808 5.54677 13.4149 5.08946 12.0325 5.08946V3C14.3331 3 16.6336 3.91118 18.375 5.65224C21.9149 9.19231 21.9149 14.7971 18.375 18.3371Z" fill="url(#paint2_linear)"/>
</g>
<defs>
<linearGradient id="paint0_linear" x1="-3" y1="-1.17347e-07" x2="28.5" y2="32.5" gradientUnits="userSpaceOnUse">
<stop stop-color="#FF5D39"/>
<stop offset="1" stop-color="#DC9765"/>
</linearGradient>
<linearGradient id="paint1_linear" x1="12.0325" y1="3" x2="12.0325" y2="21" gradientUnits="userSpaceOnUse">
<stop stop-color="#7E6E6E"/>
<stop offset="1" stop-color="#836767"/>
</linearGradient>
<linearGradient id="paint2_linear" x1="16.5312" y1="3" x2="16.5312" y2="21" gradientUnits="userSpaceOnUse">
<stop stop-color="#7E6E6E"/>
<stop offset="1" stop-color="#836767"/>
</linearGradient>
<clipPath id="clip0">
<rect width="18" height="18" fill="white" transform="translate(3 3)"/>
</clipPath>
</defs>
</svg>
